<?xml version="1.0" encoding="UTF-8"?>
<svg version="1.1" xmlns="http://www.w3.org/2000/svg" width="480" height="480">
<path d="M0 0 C2.53352799 -0.30343683 4.82492627 -0.40873636 7.36184692 -0.38768005 C8.12970264 -0.39306559 8.89755836 -0.39845113 9.68868244 -0.40399987 C12.27585109 -0.41837001 14.86251457 -0.41115352 17.44970703 -0.40405273 C19.29907139 -0.40975183 21.14843223 -0.41671429 22.99778748 -0.42485046 C28.03321992 -0.44285447 33.06847879 -0.44159915 38.10393381 -0.43590808 C42.305983 -0.4328246 46.50799844 -0.43889976 50.71004283 -0.44494683 C60.62703607 -0.45901614 70.54394322 -0.45741268 80.4609375 -0.44604492 C90.68899756 -0.43457955 100.91679492 -0.44860731 111.14482033 -0.4754414 C119.92370041 -0.49761061 128.70249811 -0.50423247 137.48140419 -0.49836498 C142.72542023 -0.49499492 147.96926815 -0.49741297 153.21326065 -0.51461601 C158.14959228 -0.53010088 163.0855361 -0.52611234 168.02185249 -0.50731087 C169.83100753 -0.50362831 171.64019137 -0.50672374 173.44931984 -0.51719666 C175.92540793 -0.5304325 178.40021727 -0.51883679 180.87625122 -0.50120544 C181.58697348 -0.51081045 182.29769573 -0.52041546 183.02995503 -0.53031152 C189.41890808 -0.43714993 194.37648619 1.86215397 199.2578125 5.83984375 C222.43810463 31.88130165 238.24236301 65.49051531 247 99 C247.804375 98.83564453 247.804375 98.83564453 248.625 98.66796875 C250.31137104 98.32681145 251.99892379 97.99147244 253.68725586 97.66015625 C255.97010243 97.20523569 258.2494588 96.73256165 260.52563477 96.24536133 C270.08626519 94.28937859 279.15320663 93.43519277 288.9375 93.5 C289.99709427 93.50214508 289.99709427 93.50214508 291.07809448 93.5043335 C312.85056446 93.61235214 333.55569969 98.02705082 353 108 C351.51330148 111.44042276 349.53310132 113.69242086 346.9375 116.375 C339.6229735 124.39284636 334.15815133 133.39231539 329.39453125 143.10546875 C329.05834778 143.78398392 328.72216431 144.46249908 328.37579346 145.16157532 C327.24767536 147.43965069 326.12386537 149.71982394 325 152 C321.89169767 158.28721818 318.77656715 164.57103149 315.65625 170.85229492 C314.72372675 172.73239779 313.79336349 174.61357366 312.86523438 176.49584961 C301.04703362 200.45194431 288.42449888 223.61879044 271 244 C270.0526788 245.13222165 269.10610498 246.26506892 268.16015625 247.3984375 C258.28865859 259.16046096 247.83934925 269.45348909 235.60888672 278.75830078 C233.36099197 280.49317069 231.18561075 282.31262984 229 284.125 C222.99285939 288.93071249 216.54093359 292.97595045 210 297 C209.0112085 297.61560791 209.0112085 297.61560791 208.00244141 298.24365234 C177.80884809 316.96238279 144.08779316 327.39042717 109 332 C108.2481543 332.1045752 107.49630859 332.20915039 106.72167969 332.31689453 C97.78334742 333.39980041 88.73975151 333.24391015 79.75 333.25 C78.85572296 333.25067474 77.96144592 333.25134949 77.04006958 333.25204468 C63.45994253 333.23577377 50.35182293 332.65105572 37 330 C36.09685059 329.83371094 35.19370117 329.66742188 34.26318359 329.49609375 C2.1392603 323.54211449 -32.84034347 311.28237687 -59 291 C-59 290.34 -59 289.68 -59 289 C-59.66 289 -60.32 289 -61 289 C-61.82113177 287.60922699 -62.63152495 286.21211107 -63.4375 284.8125 C-63.88996094 284.03519531 -64.34242187 283.25789063 -64.80859375 282.45703125 C-67.12702813 277.67573543 -67.12825397 273.02792858 -67.14044189 267.77523804 C-67.14489858 266.7000724 -67.14489858 266.7000724 -67.1494453 265.60318625 C-67.15810012 263.20728802 -67.15963777 260.81143995 -67.16113281 258.41552734 C-67.16576302 256.6955403 -67.17078795 254.97555429 -67.17617798 253.25556946 C-67.18927865 248.58845796 -67.19574159 243.92136084 -67.20018864 239.25423384 C-67.20312123 236.33967998 -67.20722625 233.42513004 -67.21169281 230.51057816 C-67.2253574 221.39470036 -67.23503091 212.27883153 -67.2388947 203.1629442 C-67.24338249 192.6327935 -67.26096805 182.10277215 -67.2898953 171.5726608 C-67.3114767 163.43499813 -67.32159697 155.29737196 -67.32293582 147.15968096 C-67.32398577 142.29762015 -67.32993466 137.4356811 -67.34775543 132.57365036 C-67.36417645 128.00507142 -67.36642088 123.4367066 -67.35761642 118.86810875 C-67.35684301 117.18907411 -67.36122853 115.51002821 -67.37107468 113.83102226 C-67.3837031 111.54402124 -67.37796804 109.25778931 -67.36749268 106.97079468 C-67.36895924 105.68954397 -67.3704258 104.40829327 -67.3719368 103.08821678 C-67 100 -67 100 -65.47703171 98.06432533 C-64.74590101 97.53748429 -64.74590101 97.53748429 -64 97 C-59.18997986 98.43995646 -56.28904446 101.3357525 -52.88671875 104.85546875 C-52.31347366 105.43533035 -51.74022858 106.01519196 -51.14961243 106.61262512 C-49.32163931 108.46392369 -47.50411753 110.3250631 -45.6875 112.1875 C-43.29940971 114.6222839 -40.90711738 117.0528753 -38.51171875 119.48046875 C-37.9367717 120.06346237 -37.36182465 120.64645599 -36.76945496 121.24711609 C-32.67817922 125.37285295 -28.45813027 129.2714627 -24 133 C-22.86937579 133.98370602 -21.74043788 134.96935389 -20.61328125 135.95703125 C-12.95398005 142.60204522 -5.12480907 148.93218457 3 155 C3.71849121 155.53915039 4.43698242 156.07830078 5.17724609 156.63378906 C15.57328718 164.42266569 26.05524567 171.9999338 37 179 C37.75941895 179.48791016 38.51883789 179.97582031 39.30126953 180.47851562 C52.32374585 188.80584868 65.66773996 196.39764375 79.34619141 203.59326172 C81.7185295 204.85079733 84.07046052 206.13832865 86.41796875 207.44140625 C87.65311076 208.10776358 88.88873729 208.77322416 90.125 209.4375 C91.13820312 209.99308594 92.15140625 210.54867187 93.1953125 211.12109375 C96.94045975 212.29471232 98.46226994 211.63659249 102 210 C104.46040647 208.63904374 106.81942463 207.25464922 109.1875 205.75 C109.86949463 205.31961426 110.55148926 204.88922852 111.25415039 204.44580078 C122.90115418 196.97146498 134.51004506 188.86961461 144.50390625 179.2578125 C146 178 146 178 148 178 C148 177.34 148 176.68 148 176 C148.66 175.34 149.32 174.68 150 174 C139.94169061 156.72229904 139.94169061 156.72229904 129 140 C128.12793108 138.71680803 127.25691111 137.4329028 126.38671875 136.1484375 C117.36436725 122.86710735 107.67907317 110.23940434 97.49560547 97.83203125 C96.2054404 96.25165275 94.93124706 94.65826009 93.66015625 93.0625 C86.38907016 83.96348724 78.47834009 75.25499975 70.078125 67.1796875 C68 65 68 65 68 63 C67.34 63 66.68 63 66 63 C66 62.34 66 61.68 66 61 C65.40324463 60.7306665 64.80648926 60.46133301 64.19165039 60.18383789 C61.99977436 58.99987812 60.64442964 57.8495338 58.93359375 56.05859375 C58.37115967 55.47932129 57.80872559 54.90004883 57.22924805 54.30322266 C56.63797119 53.68753418 56.04669434 53.0718457 55.4375 52.4375 C50.35797554 47.24733506 45.20398152 42.50920592 39.50390625 38.00390625 C37.12578393 36.10066639 34.87397492 34.11555696 32.625 32.0625 C25.68463823 25.83460015 18.15930589 20.31029674 10.64453125 14.80078125 C9.91435791 14.26227539 9.18418457 13.72376953 8.43188477 13.16894531 C6.99840286 12.11352281 5.56020167 11.0644746 4.11694336 10.02246094 C3.4647583 9.54196289 2.81257324 9.06146484 2.140625 8.56640625 C1.55829102 8.14302979 0.97595703 7.71965332 0.37597656 7.28344727 C-1 6 -1 6 -2 3 C-1.34 2.01 -0.68 1.02 0 0 Z " fill="#133C9A" transform="translate(79,64)"/>
<path d="M0 0 C4.81002014 1.43995646 7.71095554 4.3357525 11.11328125 7.85546875 C11.68652634 8.43533035 12.25977142 9.01519196 12.85038757 9.61262512 C14.67836069 11.46392369 16.49588247 13.3250631 18.3125 15.1875 C20.70059029 17.6222839 23.09288262 20.0528753 25.48828125 22.48046875 C26.0632283 23.06346237 26.63817535 23.64645599 27.23054504 24.24711609 C31.32182078 28.37285295 35.54186973 32.2714627 40 36 C41.13062421 36.98370602 42.25956212 37.96935389 43.38671875 38.95703125 C51.04601995 45.60204522 58.87519093 51.93218457 67 58 C67.71849121 58.53915039 68.43698242 59.07830078 69.17724609 59.63378906 C79.57328718 67.42266569 90.05524567 74.9999338 101 82 C101.75941895 82.48791016 102.51883789 82.97582031 103.30126953 83.47851562 C116.32507103 91.80669608 129.68638091 99.35209454 143.34277344 106.58984375 C145.66342551 107.82138421 147.97802261 109.0630489 150.2890625 110.3125 C197.47426911 135.79299564 255.73477328 163.74784408 310.171875 148.31640625 C329.56422584 141.99738171 344.98089637 129.2257899 357 113 C357.33 113.66 357.66 114.32 358 115 C343.49811808 137.25646806 343.49811808 137.25646806 335 147 C334.05537662 148.12469643 333.11280068 149.25111449 332.171875 150.37890625 C322.30335207 162.15333964 311.84492942 172.44924375 299.60888672 181.75830078 C297.36099197 183.49317069 295.18561075 185.31262984 293 187.125 C286.99285939 191.93071249 280.54093359 195.97595045 274 200 C273.0112085 200.61560791 273.0112085 200.61560791 272.00244141 201.24365234 C241.80884809 219.96238279 208.08779316 230.39042717 173 235 C172.2481543 235.1045752 171.49630859 235.20915039 170.72167969 235.31689453 C161.78334742 236.39980041 152.73975151 236.24391015 143.75 236.25 C142.85572296 236.25067474 141.96144592 236.25134949 141.04006958 236.25204468 C127.45994253 236.23577377 114.35182293 235.65105572 101 233 C100.09685059 232.83371094 99.19370117 232.66742188 98.26318359 232.49609375 C66.1392603 226.54211449 31.15965653 214.28237687 5 194 C5 193.34 5 192.68 5 192 C4.34 192 3.68 192 3 192 C2.17886823 190.60922699 1.36847505 189.21211107 0.5625 187.8125 C0.11003906 187.03519531 -0.34242187 186.25789062 -0.80859375 185.45703125 C-3.12702813 180.67573543 -3.12825397 176.02792858 -3.14044189 170.77523804 C-3.14341302 170.05846095 -3.14638414 169.34168386 -3.1494453 168.60318625 C-3.15810012 166.20728802 -3.15963777 163.81143995 -3.16113281 161.41552734 C-3.16576302 159.6955403 -3.17078795 157.97555429 -3.17617798 156.25556946 C-3.18927865 151.58845796 -3.19574159 146.92136084 -3.20018864 142.25423384 C-3.20312123 139.33967998 -3.20722625 136.42513004 -3.21169281 133.51057816 C-3.2253574 124.39470036 -3.23503091 115.27883153 -3.2388947 106.1629442 C-3.24338249 95.6327935 -3.26096805 85.10277215 -3.2898953 74.5726608 C-3.3114767 66.43499813 -3.32159697 58.29737196 -3.32293582 50.15968096 C-3.32398577 45.29762015 -3.32993466 40.4356811 -3.34775543 35.57365036 C-3.36417645 31.00507142 -3.36642088 26.4367066 -3.35761642 21.86810875 C-3.35684301 20.18907411 -3.36122853 18.51002821 -3.37107468 16.83102226 C-3.3837031 14.54402124 -3.37796804 12.25778931 -3.36749268 9.97079468 C-3.36895924 8.68954397 -3.3704258 7.40829327 -3.3719368 6.08821678 C-3 3 -3 3 -1.47703171 1.06432533 C-0.98961124 0.71309797 -0.50219078 0.36187061 0 0 Z " fill="#326FFE" transform="translate(15,161)"/>
<path d="M0 0 C2.53352799 -0.30343683 4.82492627 -0.40873636 7.36184692 -0.38768005 C8.12970264 -0.39306559 8.89755836 -0.39845113 9.68868244 -0.40399987 C12.27585109 -0.41837001 14.86251457 -0.41115352 17.44970703 -0.40405273 C19.29907139 -0.40975183 21.14843223 -0.41671429 22.99778748 -0.42485046 C28.03321992 -0.44285447 33.06847879 -0.44159915 38.10393381 -0.43590808 C42.305983 -0.4328246 46.50799844 -0.43889976 50.71004283 -0.44494683 C60.62703607 -0.45901614 70.54394322 -0.45741268 80.4609375 -0.44604492 C90.68899756 -0.43457955 100.91679492 -0.44860731 111.14482033 -0.4754414 C119.92370041 -0.49761061 128.70249811 -0.50423247 137.48140419 -0.49836498 C142.72542023 -0.49499492 147.96926815 -0.49741297 153.21326065 -0.51461601 C158.14959228 -0.53010088 163.0855361 -0.52611234 168.02185249 -0.50731087 C169.83100753 -0.50362831 171.64019137 -0.50672374 173.44931984 -0.51719666 C175.92540793 -0.5304325 178.40021727 -0.51883679 180.87625122 -0.50120544 C181.58697348 -0.51081045 182.29769573 -0.52041546 183.02995503 -0.53031152 C189.41890808 -0.43714993 194.37648619 1.86215397 199.2578125 5.83984375 C219.13283231 28.16805638 247 69.87004151 247 101 C245.94683594 101.4125 244.89367187 101.825 243.80859375 102.25 C226.54484736 109.11234423 209.2576924 117.26752164 196.1640625 130.86328125 C194 133 194 133 192 133 C191.74943848 133.57580811 191.49887695 134.15161621 191.24072266 134.74487305 C189.83143301 137.30638593 188.22091237 139.0218495 186.1484375 141.08203125 C185.37886719 141.84966797 184.60929688 142.61730469 183.81640625 143.40820312 C183.01074219 144.20162109 182.20507812 144.99503906 181.375 145.8125 C180.20130859 146.98522461 180.20130859 146.98522461 179.00390625 148.18164062 C174.74771591 152.40606835 170.39697399 156.4470892 165.85302734 160.35864258 C162.40343249 163.4141928 159.24148432 166.75483208 156.05078125 170.07617188 C154.7360282 171.41980193 153.37183112 172.71469976 152 174 C151.34 174 150.68 174 150 174 C148.70654297 172.17089844 148.70654297 172.17089844 147.2421875 169.609375 C146.70319824 168.67818848 146.16420898 167.74700195 145.60888672 166.78759766 C145.0367041 165.78519043 144.46452148 164.7827832 143.875 163.75 C139.15912782 155.63044224 134.34945324 147.71894027 129 140 C128.12793108 138.71680803 127.25691111 137.4329028 126.38671875 136.1484375 C117.36436725 122.86710735 107.67907317 110.23940434 97.49560547 97.83203125 C96.2054404 96.25165275 94.93124706 94.65826009 93.66015625 93.0625 C86.38907016 83.96348724 78.47834009 75.25499975 70.078125 67.1796875 C68 65 68 65 68 63 C67.34 63 66.68 63 66 63 C66 62.34 66 61.68 66 61 C65.10486694 60.59599976 65.10486694 60.59599976 64.19165039 60.18383789 C61.99977436 58.99987812 60.64442964 57.8495338 58.93359375 56.05859375 C58.37115967 55.47932129 57.80872559 54.90004883 57.22924805 54.30322266 C56.63797119 53.68753418 56.04669434 53.0718457 55.4375 52.4375 C50.35797554 47.24733506 45.20398152 42.50920592 39.50390625 38.00390625 C37.12578393 36.10066639 34.87397492 34.11555696 32.625 32.0625 C25.68463823 25.83460015 18.15930589 20.31029674 10.64453125 14.80078125 C9.91435791 14.26227539 9.18418457 13.72376953 8.43188477 13.16894531 C6.99840286 12.11352281 5.56020167 11.0644746 4.11694336 10.02246094 C3.4647583 9.54196289 2.81257324 9.06146484 2.140625 8.56640625 C1.26712402 7.93134155 1.26712402 7.93134155 0.37597656 7.28344727 C-1 6 -1 6 -2 3 C-1.34 2.01 -0.68 1.02 0 0 Z " fill="#00D5B8" transform="translate(79,64)"/>
</svg>
