<?xml version="1.0" encoding="UTF-8"?>
<svg version="1.1" xmlns="http://www.w3.org/2000/svg" width="228" height="228">
<path d="M0 0 C2.00799754 1.67049624 2.00799754 1.67049624 4.875 3.515625 C4.875 4.175625 4.875 4.835625 4.875 5.515625 C5.535 5.515625 6.195 5.515625 6.875 5.515625 C6.875 6.175625 6.875 6.835625 6.875 7.515625 C7.535 7.515625 8.195 7.515625 8.875 7.515625 C10.41247576 9.44275572 11.81071748 11.3525688 13.1875 13.390625 C13.59049316 13.98415771 13.99348633 14.57769043 14.40869141 15.18920898 C23.74433257 29.16259215 26.44306491 41.93654534 25.875 58.515625 C24.95074219 58.02578125 24.02648437 57.5359375 23.07421875 57.03125 C18.62716401 54.9244646 15.4988461 54.97434297 10.875 56.515625 C10.71644531 55.42765625 10.55789062 54.3396875 10.39453125 53.21875 C7.52497541 34.6693481 0.98857329 21.25653848 -14.125 9.515625 C-30.95796735 -2.76083222 -52.49266194 -5.29462374 -72.6015625 -2.17578125 C-90.25121929 1.28762147 -105.24375211 10.11637967 -116.125 24.515625 C-123.68745854 37.18435897 -126.71651408 50.11184811 -123.84765625 64.703125 C-122.00046611 71.89218934 -118.57966379 77.65722309 -114.296875 83.66796875 C-113.125 85.515625 -113.125 85.515625 -113.125 87.515625 C-112.465 87.515625 -111.805 87.515625 -111.125 87.515625 C-109.92226503 88.9522251 -108.72447678 90.39351896 -107.5625 91.86328125 C-106.11455424 93.52763194 -104.61825154 94.79547177 -102.875 96.140625 C-99.42601243 99.11929608 -99.42601243 99.11929608 -99.125 102.515625 C-99.68527292 105.16214031 -100.30672309 107.677884 -101.0625 110.265625 C-101.25779297 110.96300781 -101.45308594 111.66039062 -101.65429688 112.37890625 C-102.1358246 114.09361473 -102.62925157 115.80497377 -103.125 117.515625 C-102.38564209 117.05337524 -102.38564209 117.05337524 -101.63134766 116.58178711 C-99.35308071 115.17840657 -97.05264703 113.81610228 -94.75 112.453125 C-93.97527344 111.96779297 -93.20054688 111.48246094 -92.40234375 110.98242188 C-86.20708108 107.37278536 -82.07282181 107.16320797 -75.125 108.515625 C-73.72509944 108.71395746 -72.32406775 108.90451857 -70.921875 109.0859375 C-70.25881348 109.17842773 -69.59575195 109.27091797 -68.91259766 109.36621094 C-56.67924739 111.01374098 -45.20034223 110.05391122 -33.125 107.515625 C-32.50651042 109.43619792 -31.88802083 111.35677083 -31.26953125 113.27734375 C-29.73832632 116.27181619 -27.56602475 118.23440547 -25.125 120.515625 C-27.33209983 121.16566125 -29.54073892 121.81047245 -31.75 122.453125 C-33.59464844 122.99259766 -33.59464844 122.99259766 -35.4765625 123.54296875 C-42.82407522 125.50178103 -49.7528604 125.69866504 -57.3125 125.703125 C-58.38564453 125.71537109 -59.45878906 125.72761719 -60.56445312 125.74023438 C-66.79280586 125.7515381 -72.51172152 125.26945001 -78.58325195 123.84887695 C-83.77361582 123.16836147 -87.811085 124.6118062 -92.34765625 127.01953125 C-93.77368164 127.75913086 -93.77368164 127.75913086 -95.22851562 128.51367188 C-97.20583935 129.55910838 -99.1823993 130.6059907 -101.15820312 131.65429688 C-102.10759766 132.14607422 -103.05699219 132.63785156 -104.03515625 133.14453125 C-104.89246338 133.59900635 -105.74977051 134.05348145 -106.63305664 134.52172852 C-109.36635729 135.61188889 -111.20979697 135.81340635 -114.125 135.515625 C-116.5 134.078125 -116.5 134.078125 -118.125 131.515625 C-118.05247373 127.01899643 -117.44898544 123.45974751 -115.98828125 119.203125 C-114.81426703 115.4462795 -114.04557044 112.46062629 -114.125 108.515625 C-116.38632245 105.14563863 -119.05528556 102.68245068 -122.12890625 100.08984375 C-132.29488053 91.35532347 -139.40577252 76.71069593 -141.125 63.515625 C-142.57842344 42.40205414 -138.42388379 26.73967486 -125.859375 9.5 C-125.28703125 8.84515625 -124.7146875 8.1903125 -124.125 7.515625 C-123.465 7.515625 -122.805 7.515625 -122.125 7.515625 C-121.90070313 6.94328125 -121.67640625 6.3709375 -121.4453125 5.78125 C-114.58851698 -5.98484882 -94.46684924 -13.33942015 -82.10546875 -16.7421875 C-81.12191406 -16.98710937 -80.13835937 -17.23203125 -79.125 -17.484375 C-77.88169922 -17.82082031 -77.88169922 -17.82082031 -76.61328125 -18.1640625 C-50.21609349 -24.21428136 -20.80311096 -16.97900968 0 0 Z " fill="#0079DE" transform="translate(147.125,46.484375)"/>
<path d="M0 0 C3.42320786 3.04285143 3.99856847 6.69613493 5.25 11 C7.36681279 17.15632017 9.31641645 22.6145924 14.25 27 C16.51926515 27.66548577 18.7648952 28.06508183 21.09375 28.46875 C24.70969354 29.35963464 26.18708201 30.97008921 28.25 34 C29.57424081 38.48586575 29.60551352 41.93345943 28.125 46.375 C24.750429 51.09939941 20.46277238 52.35131915 15 53.75 C9.33501906 55.39881099 5.52664314 57.59080164 1.15234375 61.51171875 C-0.87514599 63.09790683 -2.20855252 63.6882632 -4.75 64 C-5.41 63.67 -6.07 63.34 -6.75 63 C-6.2046353 58.8508064 -4.90399066 56.49012705 -2.375 53.1875 C0.73697662 48.89424246 2.70640544 45.03852564 4.25 40 C4.81094801 38.33281034 5.3734543 36.6661442 5.9375 35 C6.37652414 33.66716774 6.81459142 32.33401777 7.25 31 C2.05852633 26.15462457 -4.32881582 23.96825967 -11.0625 22.0625 C-15.03648709 20.49138883 -17.83504366 17.82991268 -19.75 14 C-20.12766377 8.99595502 -19.86200434 6.00114844 -16.75 2 C-11.35218751 -2.72308593 -6.59143003 -2.39688365 0 0 Z " fill="#2CBB00" transform="translate(174.75,107)"/>
<path d="M0 0 C2.125 0.375 2.125 0.375 4 1 C4.72265625 2.703125 4.72265625 2.703125 5 5 C3.55859375 7.234375 3.55859375 7.234375 1.4375 9.75 C-2.65262736 15.02092934 -4.84427872 20.13847658 -6.74438477 26.51660156 C-7.93409442 30.20538391 -8.93669654 31.9476513 -11.95703125 34.4453125 C-15.6628974 36.33868185 -17.88643606 36.5235445 -22 36 C-26.54277658 34.0983726 -28.87347827 31.41662206 -31 27 C-31.49559395 22.99215326 -31.08886854 19.62791237 -28.81640625 16.23046875 C-24.37175595 11.85232194 -19.05240088 10.68271476 -13.171875 9.0703125 C-7.78783752 7.25353138 -3.96308298 3.96308298 0 0 Z " fill="#FFCC00" transform="translate(145,123)"/>
<path d="M0 0 C3.32975293 0.47159591 5.29082395 1.78897837 7.875 3.875 C12.70019502 7.59146454 17.18076711 9.80248353 23.0625 11.375 C27.54258897 12.65020605 30.04485015 14.28223084 33 18 C34.53597454 21.07194908 34.2265038 23.60244293 34 27 C32.64361036 30.91845896 31.65151475 32.56565683 28.1875 34.875 C23.46199661 36.54282472 20.51454878 36.56424366 15.8125 34.8125 C10.83841916 31.60698123 9.63973995 27.22457924 8.1875 21.6875 C6.14926812 14.74649414 3.06340217 10.06340217 -2 5 C-1.46428571 1.46428571 -1.46428571 1.46428571 0 0 Z " fill="#FB6500" transform="translate(137,156)"/>
<path d="M0 0 C4.58362874 0.23306587 7.11256881 0.39579153 10.9375 3 C13.66557758 6.96811285 14.28657845 10.2208829 14 15 C12.3632457 19.9102629 10.49991295 21.65497494 6 24 C3.93105566 24.63247521 1.84585197 25.2133809 -0.25 25.75 C-5.91498094 27.39881099 -9.72335686 29.59080164 -14.09765625 33.51171875 C-16.12514599 35.09790683 -17.45855252 35.6882632 -20 36 C-20.66 35.67 -21.32 35.34 -22 35 C-21.4546353 30.8508064 -20.15399066 28.49012705 -17.625 25.1875 C-14.50848431 20.89434063 -12.58981221 17.0194071 -11 12 C-10.44486378 10.49725916 -9.88247707 8.9971748 -9.3125 7.5 C-8.879375 6.345 -8.44625 5.19 -8 4 C-5.16032769 4 -2.76264289 4.40267181 0 5 C0 3.35 0 1.7 0 0 Z " fill="#0082EE" transform="translate(190,135)"/>
</svg>
