<?xml version="1.0" encoding="UTF-8"?>
<svg version="1.1" xmlns="http://www.w3.org/2000/svg" width="480" height="480">
<path d="M0 0 C0.75796875 0.62390625 1.5159375 1.2478125 2.296875 1.890625 C22.50216196 19.03028221 37.44628476 45.38251219 39.75 71.9375 C39.84778113 73.6242245 39.93711785 75.31161422 40 77 C41.134375 76.938125 42.26875 76.87625 43.4375 76.8125 C74.65910013 76.95862293 105.49941376 93.04498759 127.5625 114.1875 C146.06593453 133.13459939 154.86523614 156.18585105 154.58959961 182.36181641 C153.68288765 208.97567291 141.31691936 230.28922566 122.69140625 248.5703125 C119.54334433 251.41224939 116.23753838 253.86750183 112.6796875 256.171875 C110.73791054 258.28525086 110.15910781 259.97791384 109.89453125 262.828125 C110.17507585 268.60526569 112.34131405 274.22407069 113.99414062 279.7265625 C114.27580078 280.7165625 114.55746094 281.7065625 114.84765625 282.7265625 C115.11586182 283.61939941 115.38406738 284.51223633 115.66040039 285.43212891 C116.07062811 288.5340521 115.36863789 290.22906152 114 293 C109.15358701 293.33819456 106.50873329 292.54932925 102.375 290.04296875 C101.33859375 289.42486328 100.3021875 288.80675781 99.234375 288.16992188 C98.16703125 287.51572266 97.0996875 286.86152344 96 286.1875 C93.87589172 284.90867394 91.75091804 283.63128399 89.625 282.35546875 C88.22121094 281.49924927 88.22121094 281.49924927 86.7890625 280.62573242 C76.70717528 274.74904414 70.57316001 276.77882727 59.5625 279.28125 C40.70636375 283.08555819 17.60271373 282.98959427 -1 278 C-1.74958984 277.80132324 -2.49917969 277.60264648 -3.27148438 277.39794922 C-25.6677432 271.31597088 -45.56486636 260.41227531 -62 244 C-62.87527344 243.13632812 -63.75054687 242.27265625 -64.65234375 241.3828125 C-72.48914148 233.24413504 -85 218.05430557 -85 206 C-85.69480469 206.16081055 -86.38960937 206.32162109 -87.10546875 206.48730469 C-107.50027223 210.09974457 -130.78556469 206.81608826 -150.57421875 201.58203125 C-162.94813689 198.61308793 -173.25881624 207.20067332 -183.5 213.25 C-185.63514578 214.50566907 -187.77054893 215.76090062 -189.90625 217.015625 C-191.30327148 217.83981934 -191.30327148 217.83981934 -192.72851562 218.68066406 C-196.44017491 220.83649024 -198.64719765 221.36273353 -203 221 C-205.26337082 217.60494377 -205.09447234 216.30425553 -204.48925781 212.39892578 C-203.31770881 206.65459421 -201.62485126 201.02865269 -199.99609375 195.40039062 C-198.5045338 189.98010459 -197.29449477 185.54467601 -199 180 C-200.72366483 177.72971002 -200.72366483 177.72971002 -203.0625 176 C-203.87847656 175.32839844 -204.69445312 174.65679687 -205.53515625 173.96484375 C-206.34855469 173.31644531 -207.16195312 172.66804687 -208 172 C-230.50125256 152.91449736 -246.73237905 128.69601523 -251 99 C-252.81278297 68.62525863 -247.1486264 41.00844585 -227.5703125 17.0234375 C-226.07195477 15.3535506 -224.54854747 13.70565525 -222.99609375 12.0859375 C-221.29493471 10.30820965 -219.81317359 8.50562142 -218.3125 6.5625 C-165.72642896 -55.00521403 -57.43675608 -48.84077898 0 0 Z " fill="#38E274" transform="translate(292,112)"/>
<path d="M0 0 C1.2689209 0.00563965 2.5378418 0.0112793 3.84521484 0.01708984 C13.44245247 0.14090144 22.39826058 0.82658428 31.6875 3.3125 C32.81841064 3.61051514 32.81841064 3.61051514 33.97216797 3.91455078 C65.57769052 12.50265837 92.77740318 31.15171161 109.625 59.58203125 C120.81810108 80.30374208 123.61400429 105.02470646 117.01879883 127.74072266 C110.3124207 148.47116833 96.78638186 167.55450535 78.3671875 179.484375 C76.42541054 181.59775086 75.84660781 183.29041384 75.58203125 186.140625 C75.86257585 191.91776569 78.02881405 197.53657069 79.68164062 203.0390625 C79.96330078 204.0290625 80.24496094 205.0190625 80.53515625 206.0390625 C80.80336182 206.93189941 81.07156738 207.82473633 81.34790039 208.74462891 C81.75812811 211.8465521 81.05613789 213.54156152 79.6875 216.3125 C74.84108701 216.65069456 72.19623329 215.86182925 68.0625 213.35546875 C66.50789063 212.42831055 66.50789063 212.42831055 64.921875 211.48242188 C63.32085937 210.50112305 63.32085937 210.50112305 61.6875 209.5 C59.56339172 208.22117394 57.43841804 206.94378399 55.3125 205.66796875 C54.37664062 205.09715576 53.44078125 204.52634277 52.4765625 203.93823242 C42.39467528 198.06154414 36.26066001 200.09132727 25.25 202.59375 C6.39386375 206.39805819 -16.70978627 206.30209427 -35.3125 201.3125 C-36.43688477 201.01448486 -36.43688477 201.01448486 -37.58398438 200.71044922 C-59.9802432 194.62847088 -79.87736636 183.72477531 -96.3125 167.3125 C-97.62541016 166.01699219 -97.62541016 166.01699219 -98.96484375 164.6953125 C-103.72365657 159.7531864 -107.64110591 154.59701682 -111.1875 148.75 C-111.72346802 147.86683105 -111.72346802 147.86683105 -112.27026367 146.96582031 C-117.22092925 138.43623365 -119.97583119 129.76687644 -121.5625 120.0625 C-121.81398804 118.5475293 -121.81398804 118.5475293 -122.07055664 117.00195312 C-125.96586116 92.27162123 -119.71018469 69.06784801 -105.44140625 48.6328125 C-84.16600991 20.94383514 -52.30641032 5.39524487 -18.05908203 0.71606445 C-12.03489071 0.06716648 -6.05470747 -0.02847169 0 0 Z " fill="#E4E4E4" transform="translate(326.3125,188.6875)"/>
<path d="M0 0 C4.68597212 2.64169344 7.40547853 6.00608122 10.0625 10.6875 C11.72153769 17.17282915 11.326904 22.71914909 8.01953125 28.5859375 C4.96952627 32.88409836 0.8957689 36.05864051 -4.25 37.375 C-10.00726095 37.9742688 -14.29473148 37.64097244 -19.25 34.375 C-23.86211492 30.406436 -26.81537948 26.76121918 -27.60546875 20.60546875 C-27.88323542 14.63723885 -27.54717324 9.95273517 -23.92578125 5.06640625 C-17.16013905 -1.76231886 -8.8661133 -3.94234306 0 0 Z " fill="#168843" transform="translate(243.25,139.625)"/>
<path d="M0 0 C4.52816601 2.84695551 7.49891106 5.88985103 9.25 11 C10.24607558 17.60789426 9.88400117 23.55998745 6.453125 29.3828125 C3.54113624 33.29697921 -0.06940001 35.75184 -4.75 37 C-11.1897665 37.83560984 -15.73514894 37.23870388 -21.0625 33.42578125 C-25.43064832 29.73510038 -28.28202847 25.69413889 -29.0078125 19.96484375 C-29.30744479 14.1419896 -28.1346991 9.76982212 -24.75 5 C-17.95030672 -2.33994288 -9.03329216 -4.47147962 0 0 Z " fill="#168843" transform="translate(147.75,140)"/>
<path d="M0 0 C5.01767577 2.8511653 7.60590694 5.7868845 9.77734375 11.125 C10.56475445 17.32585927 9.59592685 22.08016768 5.77734375 27.125 C2.02353871 30.62459702 -1.70391678 32.418603 -6.84765625 32.6875 C-11.23585109 32.41559808 -13.85973986 31.01867224 -17.22265625 28.125 C-21.94423083 22.7653748 -22.74108048 19.33224037 -22.70703125 12.25 C-21.92340827 7.19436789 -19.14861434 4.23703995 -15.22265625 1.125 C-10.41975093 -1.76246094 -5.22455353 -2.05676624 0 0 Z " fill="#929292" transform="translate(370.22265625,243.875)"/>
<path d="M0 0 C3.78771711 2.55259197 6.76283193 4.81443219 8.875 8.9375 C9.87173255 14.5705491 9.68080577 19.26619915 7.1875 24.4375 C2.83909298 29.13848056 -0.33855766 31.65413298 -6.8125 32.3125 C-11.86650572 32.21942439 -15.42697265 30.31644977 -19.125 26.9375 C-22.29799322 22.75734882 -23.88103111 18.2146268 -23.5703125 12.953125 C-22.40017473 7.65671193 -19.33967592 3.38639441 -14.8125 0.4375 C-9.43158646 -1.75134619 -5.61900983 -1.91046334 0 0 Z " fill="#929292" transform="translate(289.125,244.0625)"/>
</svg>
